<svg version="1.1" id="Layer_1" xmlns="http://www.w3.org/2000/svg" xmlns:xlink="http://www.w3.org/1999/xlink" x="0px" y="0px"
	 width="100%" viewBox="0 0 1119 623" enable-background="new 0 0 1119 623" xml:space="preserve">
<path fill="#FFFFFF" opacity="1.000000" stroke="none" 
	d="
M825.000000,624.000000 
	C550.000000,624.000000 275.500031,624.000000 1.000037,624.000000 
	C1.000025,416.333374 1.000025,208.666718 1.000012,1.000065 
	C373.999969,1.000043 746.999939,1.000043 1120.000000,1.000022 
	C1120.000000,208.666611 1120.000000,416.333221 1120.000000,623.999878 
	C1021.833313,624.000000 923.666687,624.000000 825.000000,624.000000 
M353.500000,472.013397 
	C367.666016,472.013397 381.832214,472.053589 395.997955,471.993164 
	C401.487427,471.969757 407.087494,472.371735 412.445282,471.456543 
	C434.085022,467.760223 447.695099,450.807709 447.710388,427.877594 
	C447.756226,359.214020 447.729218,290.550385 447.716339,221.886795 
	C447.716064,220.439056 447.542999,218.991348 447.445374,217.463074 
	C328.862610,217.463074 210.632309,217.463074 92.210716,217.463074 
	C92.145447,218.896179 92.048218,220.035995 92.048111,221.175797 
	C92.041809,290.672180 91.972672,360.168671 92.082726,429.664886 
	C92.121353,454.058228 110.528671,472.010376 135.009720,472.011841 
	C207.506485,472.016174 280.003235,472.013367 353.500000,472.013397 
M324.733032,155.440094 
	C324.733032,147.846313 324.733032,140.252533 324.733032,132.650116 
	C287.771332,132.650116 251.533829,132.650116 215.017502,132.650116 
	C215.017502,142.137421 215.182083,151.294754 214.976135,160.443756 
	C214.714630,172.061401 205.211487,181.105576 193.614059,181.102768 
	C181.639069,181.099869 172.353088,171.845245 172.133682,159.446487 
	C171.975754,150.520889 172.102921,141.590271 172.102921,132.551666 
	C157.985626,132.551666 144.474625,131.843307 131.066528,132.715912 
	C110.406578,134.060486 95.112770,148.225784 92.711273,168.856842 
	C91.320251,180.806992 92.458496,193.051559 92.458496,205.244431 
	C210.835312,205.244431 329.166077,205.244431 447.615265,205.244431 
	C447.615265,194.147507 448.111572,183.462830 447.514404,172.839615 
	C446.172974,148.976944 428.760437,132.693542 404.704681,132.344360 
	C393.542389,132.182327 382.375793,132.306305 371.211212,132.329468 
	C370.117676,132.331741 369.024536,132.537247 367.611786,132.680893 
	C367.611786,136.332153 367.653931,139.641556 367.602936,142.949509 
	C367.500275,149.607315 367.826477,156.316849 367.104523,162.909653 
	C365.960632,173.355621 357.026520,180.927383 346.594025,181.089691 
	C333.253021,181.297241 324.818085,171.776993 324.733032,155.440094 
M1054.094116,330.586426 
	C1067.601685,314.576111 1074.200317,295.115204 1080.931030,275.829498 
	C1084.830078,264.657349 1087.495483,253.054596 1090.870728,241.097748 
	C1077.664673,241.097748 1065.904907,241.097748 1053.879517,241.097748 
	C1053.558960,242.886459 1053.241577,244.501816 1052.982544,246.126450 
	C1050.203857,263.553986 1046.779053,280.809296 1040.038574,297.243744 
	C1038.958618,299.876678 1037.484619,301.984924 1034.680176,300.705353 
	C1033.318726,300.084198 1032.132324,297.545746 1032.076294,295.835663 
	C1031.536865,279.360291 1031.252075,262.876526 1030.905029,246.394974 
	C1030.868042,244.643585 1030.899902,242.890747 1030.899902,241.144653 
	C1018.136597,241.144653 1006.204224,241.144653 994.331909,241.144653 
	C994.188171,241.716248 994.009338,242.035385 994.049377,242.324249 
	C997.308655,265.881805 1000.498413,289.449615 1003.926697,312.982666 
	C1004.690613,318.226074 1008.324341,320.879272 1013.773987,321.043335 
	C1017.598511,321.158539 1021.429321,321.065613 1026.661133,321.065613 
	C1023.789062,323.537567 1022.368774,325.368073 1020.500427,326.257812 
	C1014.077087,329.316711 1007.451477,331.950012 1001.014038,334.981354 
	C999.697754,335.601196 997.926636,337.276733 997.966980,338.408508 
	C998.149048,343.513367 998.907227,348.597687 999.484253,353.934906 
	C1021.710083,355.480682 1039.445068,347.537445 1054.094116,330.586426 
M817.986938,244.390259 
	C813.385864,247.504013 808.784851,250.617767 804.011475,253.848145 
	C803.618530,249.446106 803.252808,245.348526 802.871948,241.081482 
	C794.128906,241.081482 785.686584,241.081482 776.725891,241.081482 
	C773.064331,267.595734 769.411804,294.043915 765.729553,320.707825 
	C777.248230,320.707825 788.281006,320.707825 799.430115,320.707825 
	C801.589539,305.724518 803.661499,291.082031 805.865295,276.459381 
	C806.089966,274.968872 806.723083,272.919556 807.826050,272.295929 
	C811.401428,270.274445 815.149902,268.299225 819.083191,267.238495 
	C823.668274,266.002014 825.280090,267.804321 824.641418,272.518890 
	C823.636597,279.936066 822.487732,287.333527 821.439453,294.744934 
	C820.218140,303.379944 819.039368,312.020966 817.839417,320.679291 
	C829.562744,320.679291 840.617981,320.679291 851.661194,320.679291 
	C852.652100,313.701385 853.621460,307.120575 854.515259,300.529541 
	C856.415100,286.520569 858.739502,272.547943 860.004883,258.480835 
	C861.008911,247.319412 853.851685,239.936432 842.674072,238.859787 
	C834.095337,238.033508 826.169128,240.053833 817.986938,244.390259 
M552.725342,240.677490 
	C541.128601,240.216202 529.478943,238.848038 517.948242,239.520218 
	C503.104553,240.385559 491.638702,247.462952 486.312805,262.242767 
	C482.589569,272.575073 481.334229,283.286926 482.302582,294.191772 
	C483.377930,306.301392 488.839203,315.830811 500.890686,319.494812 
	C520.966858,325.598602 541.008301,324.148071 560.646912,317.007446 
	C561.716064,316.618683 563.115662,314.972076 563.053955,313.993469 
	C562.669861,307.905884 561.912537,301.841858 561.255249,295.542664 
	C559.672791,295.646515 558.703674,295.732391 557.732727,295.770416 
	C546.917786,296.193634 536.105286,296.746155 525.286133,296.958862 
	C521.054443,297.042114 517.273254,295.793915 517.110107,289.977905 
	C521.314514,289.634064 525.458618,289.466919 529.553284,288.925323 
	C538.768494,287.706421 548.060547,286.772186 557.126099,284.816986 
	C563.794434,283.378754 568.493652,278.889587 570.473083,271.953522 
	C574.976196,256.174438 569.215759,245.534485 552.725342,240.677490 
M719.705505,297.100555 
	C710.885437,296.847870 709.414307,295.925262 708.887939,289.978394 
	C712.678467,289.649231 716.482727,289.408386 720.264465,288.972229 
	C728.684448,288.001129 737.160461,287.301086 745.484680,285.783447 
	C751.814514,284.629425 757.485352,281.722015 760.598206,275.468018 
	C768.069824,260.457062 761.382629,245.008118 745.222717,241.021912 
	C730.971069,237.506409 716.516418,237.697250 702.163208,240.740448 
	C689.457764,243.434265 680.753296,251.301727 677.479309,263.575195 
	C675.029480,272.758850 673.643860,282.582916 673.919128,292.059845 
	C674.431946,309.714935 682.562622,318.176666 699.846313,321.673798 
	C701.799805,322.069031 703.790283,322.338654 705.777222,322.501984 
	C722.545593,323.880524 738.994446,322.881989 754.953369,315.904510 
	C754.161621,309.062805 753.388916,302.385040 752.618896,295.730408 
	C741.585999,296.201813 731.119751,296.648987 719.705505,297.100555 
M599.654419,321.080292 
	C607.479675,321.063629 615.306091,320.951355 623.129883,321.051666 
	C636.519836,321.223297 646.417969,315.417389 651.714844,303.208435 
	C657.122437,290.744232 662.048401,278.029877 666.371094,265.151794 
	C668.923523,257.547546 669.896423,249.413147 671.665466,241.114746 
	C658.847290,241.114746 646.931213,241.114746 634.675842,241.114746 
	C634.107239,246.038071 633.633545,250.814911 632.991638,255.569031 
	C631.163330,269.110413 628.655334,282.491089 622.883179,295.018860 
	C621.402466,298.232605 619.825500,301.503113 614.778015,300.589630 
	C614.778015,280.776978 614.778015,260.913879 614.778015,241.151398 
	C602.348999,241.151398 590.413025,241.151398 578.079834,241.151398 
	C581.011963,265.372559 583.796509,289.289032 586.876526,313.167358 
	C587.634155,319.040527 591.077698,320.974457 599.654419,321.080292 
M876.325989,299.929657 
	C875.349548,310.892548 878.806458,317.857483 888.051086,321.059845 
	C901.145020,325.595642 914.117615,322.876923 927.257507,319.643494 
	C926.649902,312.067810 926.094971,305.149750 925.501648,297.752258 
	C922.336365,297.752258 919.541077,297.827545 916.751282,297.736359 
	C911.196228,297.554779 910.401428,296.588470 911.188599,291.060394 
	C912.454224,282.173248 913.891785,273.307800 914.971497,264.398590 
	C915.325439,261.478119 916.628662,260.921692 919.193054,260.994934 
	C924.327698,261.141541 929.469360,261.038452 934.946045,261.038452 
	C935.851807,254.258575 936.716187,247.789001 937.669800,240.650955 
	C931.047363,240.650955 925.011658,240.650955 918.611694,240.650955 
	C919.552490,233.487320 920.409790,226.959824 921.291870,220.243210 
	C909.935303,220.243210 899.068176,220.243210 888.222778,220.243210 
	C887.117920,227.301315 886.069763,233.996964 885.003052,240.811188 
	C880.991882,241.013763 877.319214,240.985016 873.723999,241.498795 
	C872.491089,241.674988 870.640503,243.072968 870.461182,244.145157 
	C869.545532,249.617905 869.084473,255.166733 868.412781,261.148926 
	C873.255493,261.148926 877.526489,261.148926 882.081848,261.148926 
	C880.184937,274.080780 878.353149,286.568665 876.325989,299.929657 
M949.279602,223.763611 
	C945.745178,248.975220 942.218201,274.187866 938.673035,299.397949 
	C937.126709,310.394104 941.939575,318.584778 952.497070,321.632843 
	C963.361023,324.769379 974.281921,323.334930 985.026489,320.570679 
	C986.037292,320.310608 987.413940,318.547974 987.360535,317.550507 
	C987.015137,311.106049 986.319458,304.680359 985.689880,297.707703 
	C983.112732,297.707703 980.824829,297.715302 978.537048,297.706055 
	C974.140869,297.688293 972.348938,295.871490 973.096313,291.181580 
	C975.452454,276.396240 977.538696,261.567444 979.674622,246.747574 
	C981.471313,234.281723 983.191467,221.804855 984.965942,209.187790 
	C973.571655,209.187790 962.546814,209.187790 951.462097,209.187790 
	C950.750916,214.030151 950.099792,218.463318 949.279602,223.763611 
M207.632294,109.640205 
	C207.538559,107.481949 207.616257,105.299873 207.320236,103.169731 
	C206.258774,95.531517 200.405594,90.670631 192.836380,90.995583 
	C185.725006,91.300865 179.960068,96.804268 179.877197,104.236549 
	C179.669342,122.877312 179.700775,141.522812 179.860397,160.164490 
	C179.916901,166.763504 184.117691,171.623322 190.236908,173.157562 
	C199.634323,175.513687 207.492691,168.826691 207.592789,158.046692 
	C207.739639,142.233856 207.631638,126.418655 207.632294,109.640205 
M332.098267,124.500031 
	C332.099487,135.987579 331.986755,147.476639 332.139526,158.962173 
	C332.252625,167.466232 338.167084,173.589005 345.957336,173.694183 
	C353.935852,173.801926 359.976196,167.511093 360.012329,158.776825 
	C360.085388,141.129593 360.084686,123.481628 360.012573,105.834389 
	C359.977173,97.172249 354.408966,91.171623 346.522095,90.997467 
	C338.355988,90.817154 332.346375,96.788742 332.133362,105.520287 
	C331.987244,111.510269 332.100800,117.506592 332.098267,124.500031 
z"/>
<path fill="#081383" opacity="1.000000" stroke="none" 
	d="
M353.000000,472.013397 
	C280.003235,472.013367 207.506485,472.016174 135.009720,472.011841 
	C110.528671,472.010376 92.121353,454.058228 92.082726,429.664886 
	C91.972672,360.168671 92.041809,290.672180 92.048111,221.175797 
	C92.048218,220.035995 92.145447,218.896179 92.210716,217.463074 
	C210.632309,217.463074 328.862610,217.463074 447.445374,217.463074 
	C447.542999,218.991348 447.716064,220.439056 447.716339,221.886795 
	C447.729218,290.550385 447.756226,359.214020 447.710388,427.877594 
	C447.695099,450.807709 434.085022,467.760223 412.445282,471.456543 
	C407.087494,472.371735 401.487427,471.969757 395.997955,471.993164 
	C381.832214,472.053589 367.666016,472.013397 353.000000,472.013397 
M344.376648,461.741699 
	C346.976776,461.741699 349.576904,461.741699 352.162170,461.741699 
	C352.162170,436.874481 352.162170,412.672241 352.162170,388.258301 
	C329.238068,388.258301 306.748413,388.253540 284.258728,388.261444 
	C278.258728,388.263550 275.876648,390.614136 275.871796,396.599640 
	C275.855286,416.930023 275.860260,437.260376 275.878052,457.590759 
	C275.879150,458.861633 276.060608,460.132416 276.184143,461.741699 
	C298.811066,461.741699 321.109924,461.741699 344.376648,461.741699 
M180.067947,232.576385 
	C180.067947,231.012741 180.067947,229.449097 180.067947,228.041260 
	C153.861237,228.041260 128.454376,228.041260 102.997658,228.041260 
	C102.997658,251.991180 102.997658,275.669647 102.997658,299.517395 
	C128.747849,299.517395 154.139648,299.517395 180.067963,299.517395 
	C180.067963,277.391754 180.067963,255.478775 180.067947,232.576385 
M352.567291,230.466263 
	C352.824127,226.636154 349.921844,227.812775 348.066284,227.807678 
	C325.567993,227.745834 303.069427,227.767502 280.570953,227.767456 
	C279.129761,227.767456 277.688599,227.767441 276.228882,227.767441 
	C276.228882,252.008987 276.228882,275.718079 276.228882,299.321411 
	C301.797638,299.321411 327.003418,299.321411 352.571869,299.321411 
	C352.571869,276.430511 352.571869,253.954819 352.567291,230.466263 
M162.498260,461.737091 
	C168.274536,461.737091 174.050812,461.737091 180.070908,461.737091 
	C180.070908,439.941864 180.118851,418.789307 180.028137,397.637390 
	C180.011154,393.678314 173.734497,388.274292 169.546158,388.270355 
	C151.215088,388.253204 132.884003,388.262878 114.552917,388.262848 
	C110.758667,388.262848 106.964417,388.262878 102.947617,388.262878 
	C102.820976,390.037415 102.650787,391.329407 102.648689,392.621674 
	C102.629211,404.620178 102.565689,416.619232 102.656219,428.617096 
	C102.805450,448.393799 115.768036,461.454651 135.502518,461.716278 
	C144.166595,461.831146 152.833450,461.736572 162.498260,461.737091 
M437.089935,273.500000 
	C437.089935,258.401978 437.089935,243.303955 437.089935,227.991013 
	C411.924500,227.991013 387.216034,227.991013 362.258728,227.991013 
	C362.258728,251.823395 362.258728,275.529327 362.258728,299.485046 
	C387.142822,299.485046 411.847839,299.485046 437.089935,299.485046 
	C437.089935,291.036621 437.089935,282.768311 437.089935,273.500000 
M437.089722,429.348999 
	C437.089722,415.768738 437.089722,402.188477 437.089722,388.566345 
	C411.728149,388.566345 387.015076,388.566345 362.364380,388.566345 
	C362.364380,413.072235 362.364380,437.272644 362.364380,461.613342 
	C377.513672,461.613342 392.335297,462.182526 407.094543,461.466156 
	C424.679993,460.612610 436.428589,447.841736 437.089722,429.348999 
M244.499878,309.090851 
	C226.287216,309.090851 208.074570,309.090851 189.960815,309.090851 
	C189.960815,332.769104 189.960815,355.659546 189.960815,378.618958 
	C215.497208,378.618958 240.711899,378.618958 266.038330,378.618958 
	C266.038330,355.417969 266.038330,332.507568 266.038330,309.090851 
	C259.059540,309.090851 252.279663,309.090851 244.499878,309.090851 
M437.087158,376.283752 
	C437.087158,354.016113 437.087158,331.748474 437.087158,309.344604 
	C411.838654,309.344604 387.112091,309.344604 362.360260,309.344604 
	C362.360260,332.638092 362.360260,355.676086 362.360260,378.908417 
	C386.517212,378.908417 410.325256,378.928253 434.132874,378.837921 
	C435.114349,378.834198 436.091919,377.797577 437.087158,376.283752 
M204.671600,410.904327 
	C199.803238,408.618927 194.934875,406.333496 189.873550,403.957520 
	C189.873550,423.312927 189.873550,442.255768 189.873550,461.469055 
	C215.345459,461.469055 240.575912,461.469055 265.928528,461.469055 
	C265.928528,441.512604 265.928528,421.829590 265.928528,401.544922 
	C254.057861,408.988739 241.971130,413.973877 228.015137,413.101501 
	C229.693436,410.987732 231.730942,409.423492 233.972687,409.033569 
	C244.832962,407.144592 254.759415,403.344513 263.353180,396.256592 
	C265.973633,394.095337 267.129517,391.825470 265.729248,388.633118 
	C240.397644,388.633118 215.184921,388.633118 188.315857,388.633118 
	C190.076447,391.696503 190.755722,394.634979 192.542221,395.679169 
	C199.803284,399.923248 207.375687,403.642517 214.901031,407.420441 
	C216.602325,408.274567 218.575470,408.587189 220.423477,409.149078 
	C220.535706,409.586212 220.647949,410.023346 220.760178,410.460480 
	C219.016632,411.408234 217.238556,413.196198 215.536804,413.126282 
	C212.143677,412.986908 208.792435,411.827362 204.671600,410.904327 
M262.580109,293.985626 
	C263.673279,294.550018 264.766418,295.114441 265.964905,295.733185 
	C265.964905,272.931976 265.964905,250.538803 265.964905,228.031433 
	C240.478271,228.031433 215.274979,228.031433 189.984161,228.031433 
	C189.984161,250.424454 189.984161,272.557373 189.984161,294.863190 
	C219.094772,280.183044 237.510620,279.910889 262.580109,293.985626 
M352.575317,320.510559 
	C352.575317,316.872528 352.575317,313.234467 352.575317,309.470093 
	C328.544617,309.470093 304.922333,309.470093 280.780304,309.470093 
	C298.172119,331.604828 297.660004,354.767487 286.368011,378.649231 
	C308.669983,378.649231 330.434845,378.649231 352.575470,378.649231 
	C352.575470,359.426178 352.575470,340.466339 352.575317,320.510559 
M161.574387,335.160492 
	C165.538971,326.499237 169.503571,317.837982 173.336578,309.464172 
	C150.488327,309.464172 126.681923,309.464172 102.948288,309.464172 
	C102.948288,332.739227 102.948288,355.637970 102.948288,378.719727 
	C124.153145,378.719727 145.047455,378.719727 166.667999,378.719727 
	C159.715942,364.838898 157.436310,350.716339 161.574387,335.160492 
M202.795914,294.215485 
	C200.048660,295.740326 197.301392,297.265167 193.540878,299.352386 
	C216.780289,299.352386 238.529068,299.352386 260.766083,299.352386 
	C246.763641,287.433899 224.402954,285.480408 202.795914,294.215485 
M180.076797,338.500000 
	C180.076797,330.545807 180.076797,322.591614 180.076797,313.358002 
	C164.723633,335.824677 169.413727,367.958832 180.076797,379.300781 
	C180.076797,365.603088 180.076797,352.551544 180.076797,338.500000 
M275.854919,350.499969 
	C275.854919,359.813507 275.854919,369.127045 275.854919,379.564301 
	C286.157532,363.617096 285.850281,330.300537 275.854919,318.908783 
	C275.854919,329.250275 275.854919,339.375122 275.854919,350.499969 
z"/>
<path fill="#040F82" opacity="1.000000" stroke="none" 
	d="
M324.733154,155.928101 
	C324.818085,171.776993 333.253021,181.297241 346.594025,181.089691 
	C357.026520,180.927383 365.960632,173.355621 367.104523,162.909653 
	C367.826477,156.316849 367.500275,149.607315 367.602936,142.949509 
	C367.653931,139.641556 367.611786,136.332153 367.611786,132.680893 
	C369.024536,132.537247 370.117676,132.331741 371.211212,132.329468 
	C382.375793,132.306305 393.542389,132.182327 404.704681,132.344360 
	C428.760437,132.693542 446.172974,148.976944 447.514404,172.839615 
	C448.111572,183.462830 447.615265,194.147507 447.615265,205.244431 
	C329.166077,205.244431 210.835312,205.244431 92.458496,205.244431 
	C92.458496,193.051559 91.320251,180.806992 92.711273,168.856842 
	C95.112770,148.225784 110.406578,134.060486 131.066528,132.715912 
	C144.474625,131.843307 157.985626,132.551666 172.102921,132.551666 
	C172.102921,141.590271 171.975754,150.520889 172.133682,159.446487 
	C172.353088,171.845245 181.639069,181.099869 193.614059,181.102768 
	C205.211487,181.105576 214.714630,172.061401 214.976135,160.443756 
	C215.182083,151.294754 215.017502,142.137421 215.017502,132.650116 
	C251.533829,132.650116 287.771332,132.650116 324.733032,132.650116 
	C324.733032,140.252533 324.733032,147.846313 324.733154,155.928101 
z"/>
<path fill="#0281FF" opacity="1.000000" stroke="none" 
	d="
M1053.864746,330.857300 
	C1039.445068,347.537445 1021.710083,355.480682 999.484253,353.934906 
	C998.907227,348.597687 998.149048,343.513367 997.966980,338.408508 
	C997.926636,337.276733 999.697754,335.601196 1001.014038,334.981354 
	C1007.451477,331.950012 1014.077087,329.316711 1020.500427,326.257812 
	C1022.368774,325.368073 1023.789062,323.537567 1026.661133,321.065613 
	C1021.429321,321.065613 1017.598511,321.158539 1013.773987,321.043335 
	C1008.324341,320.879272 1004.690613,318.226074 1003.926697,312.982666 
	C1000.498413,289.449615 997.308655,265.881805 994.049377,242.324249 
	C994.009338,242.035385 994.188171,241.716248 994.331909,241.144653 
	C1006.204224,241.144653 1018.136597,241.144653 1030.899902,241.144653 
	C1030.899902,242.890747 1030.868042,244.643585 1030.905029,246.394974 
	C1031.252075,262.876526 1031.536865,279.360291 1032.076294,295.835663 
	C1032.132324,297.545746 1033.318726,300.084198 1034.680176,300.705353 
	C1037.484619,301.984924 1038.958618,299.876678 1040.038574,297.243744 
	C1046.779053,280.809296 1050.203857,263.553986 1052.982544,246.126450 
	C1053.241577,244.501816 1053.558960,242.886459 1053.879517,241.097748 
	C1065.904907,241.097748 1077.664673,241.097748 1090.870728,241.097748 
	C1087.495483,253.054596 1084.830078,264.657349 1080.931030,275.829498 
	C1074.200317,295.115204 1067.601685,314.576111 1053.864746,330.857300 
z"/>
<path fill="#0281FF" opacity="1.000000" stroke="none" 
	d="
M818.319580,244.221283 
	C826.169128,240.053833 834.095337,238.033508 842.674072,238.859787 
	C853.851685,239.936432 861.008911,247.319412 860.004883,258.480835 
	C858.739502,272.547943 856.415100,286.520569 854.515259,300.529541 
	C853.621460,307.120575 852.652100,313.701385 851.661194,320.679291 
	C840.617981,320.679291 829.562744,320.679291 817.839417,320.679291 
	C819.039368,312.020966 820.218140,303.379944 821.439453,294.744934 
	C822.487732,287.333527 823.636597,279.936066 824.641418,272.518890 
	C825.280090,267.804321 823.668274,266.002014 819.083191,267.238495 
	C815.149902,268.299225 811.401428,270.274445 807.826050,272.295929 
	C806.723083,272.919556 806.089966,274.968872 805.865295,276.459381 
	C803.661499,291.082031 801.589539,305.724518 799.430115,320.707825 
	C788.281006,320.707825 777.248230,320.707825 765.729553,320.707825 
	C769.411804,294.043915 773.064331,267.595734 776.725891,241.081482 
	C785.686584,241.081482 794.128906,241.081482 802.871948,241.081482 
	C803.252808,245.348526 803.618530,249.446106 804.011475,253.848145 
	C808.784851,250.617767 813.385864,247.504013 818.319580,244.221283 
z"/>
<path fill="#0281FF" opacity="1.000000" stroke="none" 
	d="
M553.123291,240.781342 
	C569.215759,245.534485 574.976196,256.174438 570.473083,271.953522 
	C568.493652,278.889587 563.794434,283.378754 557.126099,284.816986 
	C548.060547,286.772186 538.768494,287.706421 529.553284,288.925323 
	C525.458618,289.466919 521.314514,289.634064 517.110107,289.977905 
	C517.273254,295.793915 521.054443,297.042114 525.286133,296.958862 
	C536.105286,296.746155 546.917786,296.193634 557.732727,295.770416 
	C558.703674,295.732391 559.672791,295.646515 561.255249,295.542664 
	C561.912537,301.841858 562.669861,307.905884 563.053955,313.993469 
	C563.115662,314.972076 561.716064,316.618683 560.646912,317.007446 
	C541.008301,324.148071 520.966858,325.598602 500.890686,319.494812 
	C488.839203,315.830811 483.377930,306.301392 482.302582,294.191772 
	C481.334229,283.286926 482.589569,272.575073 486.312805,262.242767 
	C491.638702,247.462952 503.104553,240.385559 517.948242,239.520218 
	C529.478943,238.848038 541.128601,240.216202 553.123291,240.781342 
M526.024109,261.140594 
	C521.152893,263.569427 520.171021,268.062347 519.270691,273.652924 
	C524.901917,272.733124 529.983521,272.212372 534.893921,270.998993 
	C538.539185,270.098175 539.807861,266.638458 538.747681,263.526825 
	C538.211426,261.953003 535.214355,260.745880 533.132874,260.306396 
	C531.155029,259.888824 528.920471,260.687775 526.024109,261.140594 
z"/>
<path fill="#0281FF" opacity="1.000000" stroke="none" 
	d="
M720.179504,297.098389 
	C731.119751,296.648987 741.585999,296.201813 752.618896,295.730408 
	C753.388916,302.385040 754.161621,309.062805 754.953369,315.904510 
	C738.994446,322.881989 722.545593,323.880524 705.777222,322.501984 
	C703.790283,322.338654 701.799805,322.069031 699.846313,321.673798 
	C682.562622,318.176666 674.431946,309.714935 673.919128,292.059845 
	C673.643860,282.582916 675.029480,272.758850 677.479309,263.575195 
	C680.753296,251.301727 689.457764,243.434265 702.163208,240.740448 
	C716.516418,237.697250 730.971069,237.506409 745.222717,241.021912 
	C761.382629,245.008118 768.069824,260.457062 760.598206,275.468018 
	C757.485352,281.722015 751.814514,284.629425 745.484680,285.783447 
	C737.160461,287.301086 728.684448,288.001129 720.264465,288.972229 
	C716.482727,289.408386 712.678467,289.649231 708.887939,289.978394 
	C709.414307,295.925262 710.885437,296.847870 720.179504,297.098389 
M721.541870,272.153320 
	C723.600098,271.587097 726.231873,271.607666 727.567444,270.302155 
	C729.140503,268.764404 730.002625,266.137848 730.334290,263.861206 
	C730.476135,262.887756 728.705139,260.981964 727.448914,260.563293 
	C718.519775,257.587372 711.210693,263.238251 711.349731,273.252380 
	C714.486572,272.920166 717.587830,272.591705 721.541870,272.153320 
z"/>
<path fill="#0281FF" opacity="1.000000" stroke="none" 
	d="
M599.181763,321.080261 
	C591.077698,320.974457 587.634155,319.040527 586.876526,313.167358 
	C583.796509,289.289032 581.011963,265.372559 578.079834,241.151398 
	C590.413025,241.151398 602.348999,241.151398 614.778015,241.151398 
	C614.778015,260.913879 614.778015,280.776978 614.778015,300.589630 
	C619.825500,301.503113 621.402466,298.232605 622.883179,295.018860 
	C628.655334,282.491089 631.163330,269.110413 632.991638,255.569031 
	C633.633545,250.814911 634.107239,246.038071 634.675842,241.114746 
	C646.931213,241.114746 658.847290,241.114746 671.665466,241.114746 
	C669.896423,249.413147 668.923523,257.547546 666.371094,265.151794 
	C662.048401,278.029877 657.122437,290.744232 651.714844,303.208435 
	C646.417969,315.417389 636.519836,321.223297 623.129883,321.051666 
	C615.306091,320.951355 607.479675,321.063629 599.181763,321.080261 
z"/>
<path fill="#0281FF" opacity="1.000000" stroke="none" 
	d="
M876.423706,299.493103 
	C878.353149,286.568665 880.184937,274.080780 882.081848,261.148926 
	C877.526489,261.148926 873.255493,261.148926 868.412781,261.148926 
	C869.084473,255.166733 869.545532,249.617905 870.461182,244.145157 
	C870.640503,243.072968 872.491089,241.674988 873.723999,241.498795 
	C877.319214,240.985016 880.991882,241.013763 885.003052,240.811188 
	C886.069763,233.996964 887.117920,227.301315 888.222778,220.243210 
	C899.068176,220.243210 909.935303,220.243210 921.291870,220.243210 
	C920.409790,226.959824 919.552490,233.487320 918.611694,240.650955 
	C925.011658,240.650955 931.047363,240.650955 937.669800,240.650955 
	C936.716187,247.789001 935.851807,254.258575 934.946045,261.038452 
	C929.469360,261.038452 924.327698,261.141541 919.193054,260.994934 
	C916.628662,260.921692 915.325439,261.478119 914.971497,264.398590 
	C913.891785,273.307800 912.454224,282.173248 911.188599,291.060394 
	C910.401428,296.588470 911.196228,297.554779 916.751282,297.736359 
	C919.541077,297.827545 922.336365,297.752258 925.501648,297.752258 
	C926.094971,305.149750 926.649902,312.067810 927.257507,319.643494 
	C914.117615,322.876923 901.145020,325.595642 888.051086,321.059845 
	C878.806458,317.857483 875.349548,310.892548 876.423706,299.493103 
z"/>
<path fill="#0281FF" opacity="1.000000" stroke="none" 
	d="
M949.364136,223.330048 
	C950.099792,218.463318 950.750916,214.030151 951.462097,209.187790 
	C962.546814,209.187790 973.571655,209.187790 984.965942,209.187790 
	C983.191467,221.804855 981.471313,234.281723 979.674622,246.747574 
	C977.538696,261.567444 975.452454,276.396240 973.096313,291.181580 
	C972.348938,295.871490 974.140869,297.688293 978.537048,297.706055 
	C980.824829,297.715302 983.112732,297.707703 985.689880,297.707703 
	C986.319458,304.680359 987.015137,311.106049 987.360535,317.550507 
	C987.413940,318.547974 986.037292,320.310608 985.026489,320.570679 
	C974.281921,323.334930 963.361023,324.769379 952.497070,321.632843 
	C941.939575,318.584778 937.126709,310.394104 938.673035,299.397949 
	C942.218201,274.187866 945.745178,248.975220 949.364136,223.330048 
z"/>
<path fill="#051082" opacity="1.000000" stroke="none" 
	d="
M207.632263,110.122330 
	C207.631638,126.418655 207.739639,142.233856 207.592789,158.046692 
	C207.492691,168.826691 199.634323,175.513687 190.236908,173.157562 
	C184.117691,171.623322 179.916901,166.763504 179.860397,160.164490 
	C179.700775,141.522812 179.669342,122.877312 179.877197,104.236549 
	C179.960068,96.804268 185.725006,91.300865 192.836380,90.995583 
	C200.405594,90.670631 206.258774,95.531517 207.320236,103.169731 
	C207.616257,105.299873 207.538559,107.481949 207.632263,110.122330 
z"/>
<path fill="#040E81" opacity="1.000000" stroke="none" 
	d="
M332.098267,124.000053 
	C332.100800,117.506592 331.987244,111.510269 332.133362,105.520287 
	C332.346375,96.788742 338.355988,90.817154 346.522095,90.997467 
	C354.408966,91.171623 359.977173,97.172249 360.012573,105.834389 
	C360.084686,123.481628 360.085388,141.129593 360.012329,158.776825 
	C359.976196,167.511093 353.935852,173.801926 345.957336,173.694183 
	C338.167084,173.589005 332.252625,167.466232 332.139526,158.962173 
	C331.986755,147.476639 332.099487,135.987579 332.098267,124.000053 
z"/>
<path fill="#FBFCFD" opacity="1.000000" stroke="none" 
	d="
M343.892731,461.741699 
	C321.109924,461.741699 298.811066,461.741699 276.184143,461.741699 
	C276.060608,460.132416 275.879150,458.861633 275.878052,457.590759 
	C275.860260,437.260376 275.855286,416.930023 275.871796,396.599640 
	C275.876648,390.614136 278.258728,388.263550 284.258728,388.261444 
	C306.748413,388.253540 329.238068,388.258301 352.162170,388.258301 
	C352.162170,412.672241 352.162170,436.874481 352.162170,461.741699 
	C349.576904,461.741699 346.976776,461.741699 343.892731,461.741699 
z"/>
<path fill="#FEFEFE" opacity="1.000000" stroke="none" 
	d="
M180.067963,233.071091 
	C180.067963,255.478775 180.067963,277.391754 180.067963,299.517395 
	C154.139648,299.517395 128.747849,299.517395 102.997658,299.517395 
	C102.997658,275.669647 102.997658,251.991180 102.997658,228.041260 
	C128.454376,228.041260 153.861237,228.041260 180.067947,228.041260 
	C180.067947,229.449097 180.067947,231.012741 180.067963,233.071091 
z"/>
<path fill="#FCFDFE" opacity="1.000000" stroke="none" 
	d="
M352.569580,230.972687 
	C352.571869,253.954819 352.571869,276.430511 352.571869,299.321411 
	C327.003418,299.321411 301.797638,299.321411 276.228882,299.321411 
	C276.228882,275.718079 276.228882,252.008987 276.228882,227.767441 
	C277.688599,227.767441 279.129761,227.767456 280.570953,227.767456 
	C303.069427,227.767502 325.567993,227.745834 348.066284,227.807678 
	C349.921844,227.812775 352.824127,226.636154 352.569580,230.972687 
z"/>
<path fill="#FDFDFE" opacity="1.000000" stroke="none" 
	d="
M161.998657,461.737091 
	C152.833450,461.736572 144.166595,461.831146 135.502518,461.716278 
	C115.768036,461.454651 102.805450,448.393799 102.656219,428.617096 
	C102.565689,416.619232 102.629211,404.620178 102.648689,392.621674 
	C102.650787,391.329407 102.820976,390.037415 102.947617,388.262878 
	C106.964417,388.262878 110.758667,388.262848 114.552917,388.262848 
	C132.884003,388.262878 151.215088,388.253204 169.546158,388.270355 
	C173.734497,388.274292 180.011154,393.678314 180.028137,397.637390 
	C180.118851,418.789307 180.070908,439.941864 180.070908,461.737091 
	C174.050812,461.737091 168.274536,461.737091 161.998657,461.737091 
z"/>
<path fill="#FEFEFE" opacity="1.000000" stroke="none" 
	d="
M437.089935,274.000000 
	C437.089935,282.768311 437.089935,291.036621 437.089935,299.485046 
	C411.847839,299.485046 387.142822,299.485046 362.258728,299.485046 
	C362.258728,275.529327 362.258728,251.823395 362.258728,227.991013 
	C387.216034,227.991013 411.924500,227.991013 437.089935,227.991013 
	C437.089935,243.303955 437.089935,258.401978 437.089935,274.000000 
z"/>
<path fill="#FDFDFE" opacity="1.000000" stroke="none" 
	d="
M437.087677,429.825195 
	C436.428589,447.841736 424.679993,460.612610 407.094543,461.466156 
	C392.335297,462.182526 377.513672,461.613342 362.364380,461.613342 
	C362.364380,437.272644 362.364380,413.072235 362.364380,388.566345 
	C387.015076,388.566345 411.728149,388.566345 437.089722,388.566345 
	C437.089722,402.188477 437.089722,415.768738 437.087677,429.825195 
z"/>
<path fill="#FEFEFE" opacity="1.000000" stroke="none" 
	d="
M244.999847,309.090851 
	C252.279663,309.090851 259.059540,309.090851 266.038330,309.090851 
	C266.038330,332.507568 266.038330,355.417969 266.038330,378.618958 
	C240.711899,378.618958 215.497208,378.618958 189.960815,378.618958 
	C189.960815,355.659546 189.960815,332.769104 189.960815,309.090851 
	C208.074570,309.090851 226.287216,309.090851 244.999847,309.090851 
z"/>
<path fill="#FEFEFE" opacity="1.000000" stroke="none" 
	d="
M437.079224,376.762939 
	C436.091919,377.797577 435.114349,378.834198 434.132874,378.837921 
	C410.325256,378.928253 386.517212,378.908417 362.360260,378.908417 
	C362.360260,355.676086 362.360260,332.638092 362.360260,309.344604 
	C387.112091,309.344604 411.838654,309.344604 437.087158,309.344604 
	C437.087158,331.748474 437.087158,354.016113 437.079224,376.762939 
z"/>
<path fill="#FCFCFD" opacity="1.000000" stroke="none" 
	d="
M205.047760,410.996765 
	C208.792435,411.827362 212.143677,412.986908 215.536804,413.126282 
	C217.238556,413.196198 219.016632,411.408234 220.760178,410.460480 
	C220.647949,410.023346 220.535706,409.586212 220.423477,409.149078 
	C218.575470,408.587189 216.602325,408.274567 214.901031,407.420441 
	C207.375687,403.642517 199.803284,399.923248 192.542221,395.679169 
	C190.755722,394.634979 190.076447,391.696503 188.315857,388.633118 
	C215.184921,388.633118 240.397644,388.633118 265.729248,388.633118 
	C267.129517,391.825470 265.973633,394.095337 263.353180,396.256592 
	C254.759415,403.344513 244.832962,407.144592 233.972687,409.033569 
	C231.730942,409.423492 229.693436,410.987732 228.015137,413.101501 
	C241.971130,413.973877 254.057861,408.988739 265.928528,401.544922 
	C265.928528,421.829590 265.928528,441.512604 265.928528,461.469055 
	C240.575912,461.469055 215.345459,461.469055 189.873550,461.469055 
	C189.873550,442.255768 189.873550,423.312927 189.873550,403.957520 
	C194.934875,406.333496 199.803238,408.618927 205.047760,410.996765 
z"/>
<path fill="#FEFEFF" opacity="1.000000" stroke="none" 
	d="
M262.248322,293.807648 
	C237.510620,279.910889 219.094772,280.183044 189.984161,294.863190 
	C189.984161,272.557373 189.984161,250.424454 189.984161,228.031433 
	C215.274979,228.031433 240.478271,228.031433 265.964905,228.031433 
	C265.964905,250.538803 265.964905,272.931976 265.964905,295.733185 
	C264.766418,295.114441 263.673279,294.550018 262.248322,293.807648 
z"/>
<path fill="#FCFCFD" opacity="1.000000" stroke="none" 
	d="
M352.575378,321.008545 
	C352.575470,340.466339 352.575470,359.426178 352.575470,378.649231 
	C330.434845,378.649231 308.669983,378.649231 286.368011,378.649231 
	C297.660004,354.767487 298.172119,331.604828 280.780304,309.470093 
	C304.922333,309.470093 328.544617,309.470093 352.575317,309.470093 
	C352.575317,313.234467 352.575317,316.872528 352.575378,321.008545 
z"/>
<path fill="#FDFDFE" opacity="1.000000" stroke="none" 
	d="
M161.421783,335.541962 
	C157.436310,350.716339 159.715942,364.838898 166.667999,378.719727 
	C145.047455,378.719727 124.153145,378.719727 102.948288,378.719727 
	C102.948288,355.637970 102.948288,332.739227 102.948288,309.464172 
	C126.681923,309.464172 150.488327,309.464172 173.336578,309.464172 
	C169.503571,317.837982 165.538971,326.499237 161.421783,335.541962 
z"/>
<path fill="#F0F1F8" opacity="1.000000" stroke="none" 
	d="
M203.156860,294.093689 
	C224.402954,285.480408 246.763641,287.433899 260.766083,299.352386 
	C238.529068,299.352386 216.780289,299.352386 193.540878,299.352386 
	C197.301392,297.265167 200.048660,295.740326 203.156860,294.093689 
z"/>
<path fill="#FAFAFC" opacity="1.000000" stroke="none" 
	d="
M180.076797,339.000000 
	C180.076797,352.551544 180.076797,365.603088 180.076797,379.300781 
	C169.413727,367.958832 164.723633,335.824677 180.076797,313.358002 
	C180.076797,322.591614 180.076797,330.545807 180.076797,339.000000 
z"/>
<path fill="#F7F7FB" opacity="1.000000" stroke="none" 
	d="
M275.854919,349.999939 
	C275.854919,339.375122 275.854919,329.250275 275.854919,318.908783 
	C285.850281,330.300537 286.157532,363.617096 275.854919,379.564301 
	C275.854919,369.127045 275.854919,359.813507 275.854919,349.999939 
z"/>
<path fill="#F6FAFF" opacity="1.000000" stroke="none" 
	d="
M526.411438,261.046204 
	C528.920471,260.687775 531.155029,259.888824 533.132874,260.306396 
	C535.214355,260.745880 538.211426,261.953003 538.747681,263.526825 
	C539.807861,266.638458 538.539185,270.098175 534.893921,270.998993 
	C529.983521,272.212372 524.901917,272.733124 519.270691,273.652924 
	C520.171021,268.062347 521.152893,263.569427 526.411438,261.046204 
z"/>
<path fill="#F5FAFF" opacity="1.000000" stroke="none" 
	d="
M721.115479,272.208252 
	C717.587830,272.591705 714.486572,272.920166 711.349731,273.252380 
	C711.210693,263.238251 718.519775,257.587372 727.448914,260.563293 
	C728.705139,260.981964 730.476135,262.887756 730.334290,263.861206 
	C730.002625,266.137848 729.140503,268.764404 727.567444,270.302155 
	C726.231873,271.607666 723.600098,271.587097 721.115479,272.208252 
z"/>
</svg>